<svg width="45" height="45" fill="none" xmlns="http://www.w3.org/2000/svg"><circle cx="22.5" cy="22.5" r="22.5" fill="#fff"/><path fill-rule="evenodd" clip-rule="evenodd" d="M22.769 17.824c.301.226.603.528.904.829-1.733 1.733-3.466 3.39-5.123 5.123l-2.336 2.336c-.226.226-.377.452-.452.678-.302.829-.527 1.733-.754 2.562-.226.678.377 1.205 1.055.98.83-.227 1.658-.453 2.411-.754.302-.15.603-.377.83-.603l6.78-6.78c.15-.152.377-.378.527-.528.302.376.603.678.905 1.054 0 0-.151.151-.226.302-2.487 2.41-4.898 4.897-7.384 7.308-.226.226-.452.377-.678.452a101.67 101.67 0 01-5.124 1.507c-.301.076-.753.076-.98-.15-.15-.076-.15-.528-.075-.83.453-1.732.98-3.39 1.507-5.123.076-.226.226-.452.377-.678 2.562-2.637 5.123-5.274 7.61-7.986.075.15.15.226.226.301z" fill="#21325E"/><path fill-rule="evenodd" clip-rule="evenodd" d="M17.871 28.599c0-.83-.452-1.13-1.055-1.13l7.76-7.761c.302.301.679.753 1.056 1.13a376.972 376.972 0 00-7.76 7.76zm12.357-8.741l-4.671-4.67c.904-1.432 2.034-1.583 3.24-.378.527.528.98 1.055 1.507 1.507 1.507 1.432 1.431 2.185-.076 3.541zm-6.63-3.013c.301-.302.678-.603.98-.904 1.657 1.657 3.239 3.315 4.896 4.972-.3.226-.602.603-.979.904-1.582-1.657-3.24-3.315-4.897-4.972z" fill="#21325E"/></svg>