<svg width="20" height="21" fill="none" xmlns="http://www.w3.org/2000/svg"><path d="M3.354 18.858h0c-.272.27-.63.495-.983.593-.657.185-1.34-.17-1.652-.74h0a1.591 1.591 0 01-.212-.878c.02-.309.14-.59.323-.843.09-.126.2-.234.28-.313l.014-.014 6.481-6.508h.001c.051-.051.101-.104.156-.163a8.213 8.213 0 00-.186-.195s0 0 0 0L5.36 7.587h0l-.575-.574a2186.202 2186.202 0 01-3.73-3.73c-.444-.444-.667-1.066-.5-1.67v-.001c.152-.548.587-.927 1.133-1.063l1.666 18.309zm0 0a1058.72 1058.72 0 004.88-4.873l-4.88 4.873zM10 12.224a11.224 11.224 0 01.197.19l1.568 1.571c1.623 1.627 3.248 3.255 4.88 4.872.273.27.631.496.984.594.66.186 1.338-.171 1.651-.74 0 0 0 0 0 0l-.438-.241M10 12.224l8.89 4.454-.015-.014.002.001-.354.353M10 12.224a9.472 9.472 0 00-.196.189s0 0 0 0l-1.57 1.572L10 12.224zm8.842 6.246c.227-.413.201-.802-.079-1.188m.079 1.188c-.218.396-.674.614-1.079.5l1.079-.5zm-.079-1.188l.408-.29-.001-.001-.002-.002-.405.293zm0 0a2.009 2.009 0 00-.231-.255l-.01-.009m0 0l.352-.356-1.364-1.368-.354.352m1.367 1.372l-1.367-1.372m0 0l.354-.352m-.354.352l.354-.352m0 0l-5.116-5.138h0l-.003-.002a5.23 5.23 0 01-.154-.16m5.273 5.3l1.934-13.681m-7.207 8.38c.066-.071.125-.134.185-.194h0l-.353-.354m.168.548l-.016.018-.035.036v.001l-.269.286-.118-.111h0l-.246-.232.287-.267h0l.079-.073.23.246.002.002h0l.006.008.08.086zm-.168-.548l.354.353 2.216-2.211m-2.57 1.858l2.217-2.212M12.07 9.445a8.969 8.969 0 00-.215.225l2.432-2.437m.353.354c1.436-1.433 2.873-2.867 4.306-4.304M14.64 7.587l-.353-.354m.353.354h0l-.353-.354m4.659-3.95c.443-.444.666-1.066.499-1.67m-.5 1.67s0 0 0 0l-.353-.353m.354.353l-.354-.353m.853-1.317l-.482.133c.11.398-.029.84-.371 1.184m.853-1.317l-5.158 5.62m4.305-4.303c-1.432 1.437-2.869 2.87-4.305 4.303M18.313.55a1.425 1.425 0 00-.883.045c-.282.108-.53.303-.77.542l.354.353m1.3-.94l-1.3.94m1.3-.94c.546.136.98.515 1.13 1.063L18.315.55zm-1.3.94l-.354-.353a4338.168 4338.168 0 01-5.332 5.325m5.686-4.972l-5.686 4.972m0 0l-1.12 1.115h0c-.066.067-.134.131-.208.201a9.82 9.82 0 01-.21-.2L8.671 6.461s0 0 0 0 0 0 0 0l-.59-.59A3022.176 3022.176 0 013.34 1.136h0C3.1.896 2.85.703 2.569.594A1.427 1.427 0 001.688.55l9.64 5.913z" fill="#1D4076" stroke="#1D4076"/></svg>