<svg width="40" height="40" viewBox="0 0 40 40" fill="none" xmlns="http://www.w3.org/2000/svg">
<circle cx="20" cy="20" r="20" fill="#009C41"/>
<path fill-rule="evenodd" clip-rule="evenodd" d="M20.7689 14.8241C21.0703 15.0502 21.3717 15.3516 21.6731 15.6529C19.9402 17.3859 18.2072 19.0434 16.5496 20.7764C15.7962 21.5298 14.9674 22.3586 14.214 23.112C13.9879 23.3381 13.8372 23.5641 13.7619 23.7901C13.4605 24.6189 13.2345 25.5231 13.0084 26.3519C12.7824 27.03 13.3852 27.5574 14.0633 27.3313C14.8921 27.1053 15.7209 26.8793 16.4743 26.5779C16.7757 26.4272 17.0771 26.2012 17.3031 25.9751C19.5634 23.7148 21.8238 21.4545 24.0841 19.1941C24.2348 19.0434 24.4608 18.8174 24.6115 18.6667C24.9129 19.0434 25.2143 19.3448 25.5156 19.7215C25.5156 19.7215 25.365 19.8722 25.2896 20.0229C22.8032 22.4339 20.3922 24.9203 17.9058 27.3313C17.6798 27.5574 17.4538 27.7081 17.2277 27.7834C15.5702 28.3108 13.8372 28.8382 12.1043 29.2903C11.8029 29.3656 11.3509 29.3656 11.1248 29.1396C10.9741 29.0643 10.9741 28.6122 11.0495 28.3108C11.5016 26.5779 12.029 24.9203 12.5564 23.1874C12.6317 22.9614 12.7824 22.7353 12.9331 22.5093C15.4948 19.8722 18.0565 17.2352 20.5429 14.5228C20.6183 14.6735 20.6936 14.7488 20.7689 14.8241Z" fill="white"/>
<path fill-rule="evenodd" clip-rule="evenodd" d="M15.8712 25.5985C15.8712 24.7697 15.4192 24.4684 14.8164 24.4684C17.3781 21.9066 20.0152 19.2696 22.5769 16.7079C22.8783 17.0092 23.255 17.4613 23.6317 17.838C21.07 20.3244 18.5083 22.8861 15.8712 25.5985Z" fill="white"/>
<path fill-rule="evenodd" clip-rule="evenodd" d="M28.23 16.8585C26.6477 15.2763 25.1408 13.7694 23.5586 12.1871C24.4627 10.7556 25.5929 10.6049 26.7984 11.8104C27.3258 12.3378 27.7779 12.8652 28.3053 13.3173C29.8122 14.7489 29.7368 15.5023 28.23 16.8585Z" fill="white"/>
<path fill-rule="evenodd" clip-rule="evenodd" d="M21.5977 13.8448C21.899 13.5434 22.2758 13.242 22.5771 12.9406C24.2347 14.5982 25.817 16.2558 27.4745 17.9134C27.1732 18.1394 26.8718 18.5161 26.4951 18.8175C24.9128 17.1599 23.2552 15.5024 21.5977 13.8448Z" fill="white"/>
</svg>
