<svg width="40" height="40" viewBox="0 0 40 40" fill="none" xmlns="http://www.w3.org/2000/svg">
<circle cx="20" cy="20" r="20" fill="#009C41"/>
<path fill-rule="evenodd" clip-rule="evenodd" d="M37.0536 23.6372C36.7321 24.0662 36.4107 24.5489 36.0357 24.9243C34.9107 26.0505 33.7857 27.1767 32.6607 28.3028C32.2321 28.7319 31.8036 29.1609 31.1607 28.8927C30.625 28.6782 30.625 28.0883 30.625 27.5521C30.625 27.4448 30.625 27.3912 30.5714 27.0694C29.875 28.4101 28.75 28.4637 27.5714 28.4637C21.625 28.4637 15.6786 28.4101 9.73214 28.4637C8.39286 28.4637 7.48214 27.9811 7 26.7476C7 22.4038 7 18.1136 7 13.7697C7.69643 12.3218 8.125 12 9.73214 12C15.8929 12 22.0536 12 28.2679 12C29.9286 12 30.7321 12.8044 30.7857 14.4669C30.7857 15.5394 30.7857 16.612 30.7857 17.6845C31.6429 17.2555 31.9643 17.3091 32.6071 17.9527C33.8929 19.2397 35.1786 20.5268 36.4643 21.8139C36.7321 22.082 36.8929 22.4574 37.1071 22.7792C37.0536 23.1009 37.0536 23.3691 37.0536 23.6372ZM18.9464 13.0726C15.8393 13.0726 12.7321 13.0726 9.67857 13.0726C9.46429 13.0726 9.19643 13.0189 9.08929 13.1262C8.76786 13.3407 8.44643 13.6088 8.23214 13.9306C8.17857 14.0379 8.5 14.4669 8.71429 14.6278C11.9286 16.7192 15.1429 18.7571 18.3571 20.8486C18.7857 21.1167 19.0536 21.1167 19.4821 20.8486C22.6964 18.7571 25.9643 16.7192 29.1786 14.6278C29.7679 14.2524 29.7679 13.7161 29.1786 13.3407C28.9107 13.1798 28.5893 13.0726 28.2679 13.0726C25.1607 13.0726 22.0536 13.0726 18.9464 13.0726ZM29.5536 26.5868C28.3214 26.5868 27.1964 26.5331 26.125 26.5868C23.9821 26.694 23.2321 26.1577 23.3393 23.7445C23.3929 21.9748 23.3393 21.9748 21.8393 21.1167C21.6786 21.0095 21.3571 21.0095 21.1429 21.1167C20.5536 21.4385 20.0179 21.8139 19.4286 22.1893C19.0536 22.4574 18.7857 22.4574 18.4107 22.1893C17.8214 21.8139 17.2857 21.4385 16.6429 21.0631C16.4821 20.9558 16.2143 20.9558 16.0536 21.0631C13.4821 22.6719 10.9643 24.2808 8.44643 25.9432C8.28571 26.0505 8.17857 26.4259 8.23214 26.5868C8.44643 27.2303 8.98214 27.3375 9.57143 27.3375C14.4464 27.3375 19.3214 27.3375 24.1964 27.3375C25.5893 27.3375 26.9286 27.3375 28.3214 27.3375C28.8571 27.3375 29.2857 27.2303 29.5536 26.5868ZM31.75 18.7035C31.75 19.2934 31.75 19.6688 31.75 20.0442C31.75 20.795 31.6429 20.9558 30.8393 20.9558C29.0179 20.9558 27.25 20.9558 25.4286 20.9558C24.5714 20.9558 24.4107 21.1167 24.4107 22.0284C24.4107 22.8328 24.4107 23.6372 24.4107 24.4416C24.4107 25.2997 24.5714 25.5142 25.4821 25.5142C27.3036 25.5142 29.0714 25.5142 30.8929 25.5142C31.6964 25.5142 31.75 25.6215 31.75 26.4259C31.75 26.8013 31.75 27.1767 31.75 27.7129C32.9286 26.5331 34 25.4606 35.0179 24.4416C36.1964 23.2618 36.1964 23.2618 35.0179 22.082C34 21.0095 32.9286 19.9369 31.75 18.7035ZM15.3036 20.205C12.9464 18.6498 10.5893 17.2019 8.23214 15.6467C8.23214 18.7571 8.23214 21.7066 8.23214 24.7634C10.5893 23.2082 12.9464 21.7603 15.3036 20.205ZM23.5 20.8486C23.9286 20.0442 24.6786 19.8297 25.4821 19.8833C26.0179 19.9369 26.6071 19.8833 27.1429 19.8833C27.9464 19.8833 28.75 19.8833 29.5536 19.8833C29.5536 18.4353 29.5536 17.0946 29.5536 15.7003C27.1429 17.2555 24.8393 18.7035 22.4821 20.205C22.8571 20.4196 23.125 20.5804 23.5 20.8486Z" fill="white"/>
</svg>
