<svg width="45" height="45" viewBox="0 0 45 45" fill="none" xmlns="http://www.w3.org/2000/svg">
<circle cx="22.5" cy="22.5" r="22.5" fill="white"/>
<g clip-path="url(#clip0)">
<path fill-rule="evenodd" clip-rule="evenodd" d="M38.9999 26.6372C38.6784 27.0662 38.357 27.5489 37.982 27.9243C36.857 29.0505 35.732 30.1767 34.607 31.3028C34.1784 31.7319 33.7499 32.1609 33.107 31.8927C32.5713 31.6782 32.5713 31.0883 32.5713 30.5521C32.5713 30.4448 32.5713 30.3912 32.5177 30.0694C31.8213 31.4101 30.6963 31.4637 29.5177 31.4637C23.5713 31.4637 17.6249 31.4101 11.6784 31.4637C10.3391 31.4637 9.42843 30.9811 8.94629 29.7476C8.94629 25.4038 8.94629 21.1136 8.94629 16.7697C9.64272 15.3218 10.0713 15 11.6784 15C17.8391 15 23.9999 15 30.2141 15C31.8749 15 32.6784 15.8044 32.732 17.4669C32.732 18.5394 32.732 19.612 32.732 20.6845C33.5891 20.2555 33.9106 20.3091 34.5534 20.9527C35.8391 22.2397 37.1249 23.5268 38.4106 24.8139C38.6784 25.082 38.8391 25.4574 39.0534 25.7792C38.9999 26.1009 38.9999 26.3691 38.9999 26.6372ZM20.8927 16.0726C17.7856 16.0726 14.6784 16.0726 11.6249 16.0726C11.4106 16.0726 11.1427 16.0189 11.0356 16.1262C10.7141 16.3407 10.3927 16.6088 10.1784 16.9306C10.1249 17.0379 10.4463 17.4669 10.6606 17.6278C13.8749 19.7192 17.0891 21.7571 20.3034 23.8486C20.732 24.1167 20.9999 24.1167 21.4284 23.8486C24.6427 21.7571 27.9106 19.7192 31.1249 17.6278C31.7141 17.2524 31.7141 16.7161 31.1249 16.3407C30.857 16.1798 30.5356 16.0726 30.2141 16.0726C27.107 16.0726 23.9999 16.0726 20.8927 16.0726ZM31.4999 29.5868C30.2677 29.5868 29.1427 29.5331 28.0713 29.5868C25.9284 29.694 25.1784 29.1577 25.2856 26.7445C25.3391 24.9748 25.2856 24.9748 23.7856 24.1167C23.6249 24.0095 23.3034 24.0095 23.0891 24.1167C22.4999 24.4385 21.9641 24.8139 21.3749 25.1893C20.9999 25.4574 20.732 25.4574 20.357 25.1893C19.7677 24.8139 19.232 24.4385 18.5891 24.0631C18.4284 23.9558 18.1606 23.9558 17.9999 24.0631C15.4284 25.6719 12.9106 27.2808 10.3927 28.9432C10.232 29.0505 10.1249 29.4259 10.1784 29.5868C10.3927 30.2303 10.9284 30.3375 11.5177 30.3375C16.3927 30.3375 21.2677 30.3375 26.1427 30.3375C27.5356 30.3375 28.8749 30.3375 30.2677 30.3375C30.8034 30.3375 31.232 30.2303 31.4999 29.5868ZM33.6963 21.7035C33.6963 22.2934 33.6963 22.6688 33.6963 23.0442C33.6963 23.795 33.5891 23.9558 32.7856 23.9558C30.9641 23.9558 29.1963 23.9558 27.3749 23.9558C26.5177 23.9558 26.357 24.1167 26.357 25.0284C26.357 25.8328 26.357 26.6372 26.357 27.4416C26.357 28.2997 26.5177 28.5142 27.4284 28.5142C29.2499 28.5142 31.0177 28.5142 32.8391 28.5142C33.6427 28.5142 33.6963 28.6215 33.6963 29.4259C33.6963 29.8013 33.6963 30.1767 33.6963 30.7129C34.8749 29.5331 35.9463 28.4606 36.9641 27.4416C38.1427 26.2618 38.1427 26.2618 36.9641 25.082C35.9463 24.0095 34.8749 22.9369 33.6963 21.7035ZM17.2499 23.205C14.8927 21.6498 12.5356 20.2019 10.1784 18.6467C10.1784 21.7571 10.1784 24.7066 10.1784 27.7634C12.5356 26.2082 14.8927 24.7603 17.2499 23.205ZM25.4463 23.8486C25.8749 23.0442 26.6249 22.8297 27.4284 22.8833C27.9641 22.9369 28.5534 22.8833 29.0891 22.8833C29.8927 22.8833 30.6963 22.8833 31.4999 22.8833C31.4999 21.4353 31.4999 20.0946 31.4999 18.7003C29.0891 20.2555 26.7856 21.7035 24.4284 23.205C24.8034 23.4196 25.0713 23.5804 25.4463 23.8486Z" fill="#21325E"/>
</g>
<defs>
<clipPath id="clip0">
<rect width="30" height="17" fill="white" transform="translate(9 15)"/>
</clipPath>
</defs>
</svg>
