<svg width="45" height="45" viewBox="0 0 45 45" fill="none" xmlns="http://www.w3.org/2000/svg">
<circle cx="22.5" cy="22.5" r="22.5" fill="white"/>
<path fill-rule="evenodd" clip-rule="evenodd" d="M22.7689 17.8241C23.0703 18.0502 23.3717 18.3516 23.6731 18.6529C21.9402 20.3859 20.2072 22.0434 18.5496 23.7764C17.7962 24.5298 16.9674 25.3586 16.214 26.112C15.9879 26.3381 15.8372 26.5641 15.7619 26.7901C15.4605 27.6189 15.2345 28.5231 15.0084 29.3519C14.7824 30.03 15.3852 30.5574 16.0633 30.3313C16.8921 30.1053 17.7209 29.8793 18.4743 29.5779C18.7757 29.4272 19.0771 29.2012 19.3031 28.9751C21.5634 26.7148 23.8238 24.4545 26.0841 22.1941C26.2348 22.0434 26.4608 21.8174 26.6115 21.6667C26.9129 22.0434 27.2143 22.3448 27.5156 22.7215C27.5156 22.7215 27.365 22.8722 27.2896 23.0229C24.8032 25.4339 22.3922 27.9203 19.9058 30.3313C19.6798 30.5574 19.4538 30.7081 19.2277 30.7834C17.5702 31.3108 15.8372 31.8382 14.1043 32.2903C13.8029 32.3656 13.3509 32.3656 13.1248 32.1396C12.9741 32.0643 12.9741 31.6122 13.0495 31.3108C13.5016 29.5779 14.029 27.9203 14.5564 26.1874C14.6317 25.9614 14.7824 25.7353 14.9331 25.5093C17.4948 22.8722 20.0565 20.2352 22.5429 17.5228C22.6183 17.6735 22.6936 17.7488 22.7689 17.8241Z" fill="#21325E"/>
<path fill-rule="evenodd" clip-rule="evenodd" d="M17.8712 28.5985C17.8712 27.7697 17.4192 27.4684 16.8164 27.4684C19.3781 24.9066 22.0152 22.2696 24.5769 19.7079C24.8783 20.0092 25.255 20.4613 25.6317 20.838C23.07 23.3244 20.5083 25.8861 17.8712 28.5985Z" fill="#21325E"/>
<path fill-rule="evenodd" clip-rule="evenodd" d="M30.2282 19.8585C28.646 18.2763 27.1391 16.7694 25.5569 15.1871C26.461 13.7556 27.5912 13.6049 28.7967 14.8104C29.3241 15.3378 29.7762 15.8652 30.3036 16.3173C31.8105 17.7489 31.7351 18.5023 30.2282 19.8585Z" fill="#21325E"/>
<path fill-rule="evenodd" clip-rule="evenodd" d="M23.5977 16.8448C23.899 16.5434 24.2758 16.242 24.5771 15.9406C26.2347 17.5982 27.817 19.2558 29.4745 20.9134C29.1732 21.1394 28.8718 21.5161 28.4951 21.8175C26.9128 20.1599 25.2552 18.5024 23.5977 16.8448Z" fill="#21325E"/>
</svg>
