<svg width="40" height="40" viewBox="0 0 40 40" fill="none" xmlns="http://www.w3.org/2000/svg">
<rect width="40" height="40" rx="20" fill="#009C41"/>
<path fill-rule="evenodd" clip-rule="evenodd" d="M22.5317 11C22.5317 9.89543 21.6363 9 20.5317 9C19.4272 9 18.5317 9.89543 18.5317 11V18.5346H11C9.89543 18.5346 9 19.43 9 20.5346C9 21.6392 9.89543 22.5346 11 22.5346H18.5317V30.0694C18.5317 31.1739 19.4272 32.0694 20.5317 32.0694C21.6363 32.0694 22.5317 31.1739 22.5317 30.0694V22.5346H30.0694C31.1739 22.5346 32.0694 21.6392 32.0694 20.5346C32.0694 19.43 31.1739 18.5346 30.0694 18.5346H22.5317V11Z" fill="white"/>
</svg>
